<?xml version="1.0" encoding="UTF-8" standalone="no"?>
<svg
   xmlns:dc="http://purl.org/dc/elements/1.1/"
   xmlns:cc="http://creativecommons.org/ns#"
   xmlns:rdf="http://www.w3.org/1999/02/22-rdf-syntax-ns#"
   xmlns:svg="http://www.w3.org/2000/svg"
   xmlns="http://www.w3.org/2000/svg"
   xmlns:xlink="http://www.w3.org/1999/xlink"
   xmlns:sodipodi="http://sodipodi.sourceforge.net/DTD/sodipodi-0.dtd"
   xmlns:inkscape="http://www.inkscape.org/namespaces/inkscape"
   height="144.06819"
   width="116.57738"
   inkscape:version="1.0 (4035a4fb49, 2020-05-01)"
   sodipodi:docname="app_sm.svg"
   xml:space="preserve"
   viewBox="0 0 116.57738 144.06819"
   y="0px"
   x="0px"
   id="Layer_1"
   version="1.1"><metadata
   id="metadata88"><rdf:RDF><cc:Work
       rdf:about=""><dc:format>image/svg+xml</dc:format><dc:type
         rdf:resource="http://purl.org/dc/dcmitype/StillImage" /><dc:title /></cc:Work></rdf:RDF></metadata><defs
   id="defs86" /><sodipodi:namedview
   inkscape:pagecheckerboard="true"
   inkscape:snap-global="true"
   inkscape:current-layer="Layer_1"
   inkscape:window-maximized="1"
   inkscape:window-y="-8"
   inkscape:window-x="-8"
   inkscape:cy="91.453042"
   inkscape:cx="41.071488"
   inkscape:zoom="3.9279153"
   inkscape:snap-grids="true"
   inkscape:snap-smooth-nodes="true"
   inkscape:snap-intersection-paths="false"
   inkscape:object-paths="false"
   inkscape:snap-nodes="true"
   showgrid="false"
   id="namedview84"
   inkscape:window-height="1017"
   inkscape:window-width="1920"
   inkscape:pageshadow="2"
   inkscape:pageopacity="0"
   guidetolerance="10"
   gridtolerance="10"
   objecttolerance="10"
   borderopacity="1"
   bordercolor="#666666"
   pagecolor="#ffffff"
   inkscape:document-rotation="0" />
<style
   id="style77"
   type="text/css">
	.st0{fill:#7289DA;}
</style>

<path
   sodipodi:nodetypes="cczzcc"
   id="path550"
   d="M 0.97956502,29.424456 H 115.58645 c 0,0 -0.31611,69.382311 0,88.940294 0.31611,19.55799 -5.99583,24.39778 -21.921725,24.62335 -15.925894,0.22558 -92.68515998,0 -92.68515998,0 z"
   style="opacity:1;fill:none;fill-opacity:1;stroke:#ffffff;stroke-width:3.34345156;stroke-linecap:butt;stroke-linejoin:miter;stroke-opacity:1" /><g
   transform="matrix(0.56229832,0,0,0.53215941,-10.648165,28.67672)"
   id="g92"
   style="fill:none;fill-opacity:1"><path
     class="st0"
     d="m 104.4,103.9 c -5.7,0 -10.2,5 -10.2,11.1 0,6.1 4.6,11.1 10.2,11.1 5.7,0 10.2,-5 10.2,-11.1 0.1,-6.1 -4.5,-11.1 -10.2,-11.1 z m 36.5,0 c -5.7,0 -10.2,5 -10.2,11.1 0,6.1 4.6,11.1 10.2,11.1 5.7,0 10.2,-5 10.2,-11.1 0,-6.1 -4.5,-11.1 -10.2,-11.1 z"
     id="path79"
     style="fill:none;fill-opacity:1" /><path
     sodipodi:nodetypes="sssssccsscccccccccccccccccccccccccccc"
     class="st0"
     d="M 189.5,20 H 55.5 C 44.2,20 35,29.2 35,40.6 v 135.2 c 0,11.4 9.2,20.6 20.5,20.6 h 134 c 12.03636,0.0923 20.44397,-9.77136 20.69674,-20.6 L 210,40.6 C 209.98341,29.200012 200.8,20 189.5,20 Z m -38.6,130.6 c 0,0 -3.6,-4.3 -6.6,-8.1 13.1,-3.7 18.1,-11.9 18.1,-11.9 -4.1,2.7 -8,4.6 -11.5,5.9 -5,2.1 -9.8,3.5 -14.5,4.3 -9.6,1.8 -18.4,1.3 -25.9,-0.1 -5.7,-1.1 -10.6,-2.7 -14.7,-4.3 -2.3,-0.9 -4.8,-2 -7.3,-3.4 -0.3,-0.2 -0.6,-0.3 -0.9,-0.5 -0.2,-0.1 -0.3,-0.2 -0.4,-0.3 -1.8,-1 -2.8,-1.7 -2.8,-1.7 0,0 4.8,8 17.5,11.8 -3,3.8 -6.7,8.3 -6.7,8.3 -22.1,-0.7 -30.5,-15.2 -30.5,-15.2 0,-32.2 14.4,-58.3 14.4,-58.3 14.4,-10.8 28.1,-10.5 28.1,-10.5 l 1,1.2 c -18,5.2 -26.3,13.1 -26.3,13.1 0,0 2.2,-1.2 5.9,-2.9 10.7,-4.7 19.2,-6 22.7,-6.3 0.6,-0.1 1.1,-0.2 1.7,-0.2 6.1,-0.8 13,-1 20.2,-0.2 9.5,1.1 19.7,3.9 30.1,9.6 0,0 -7.9,-7.5 -24.9,-12.7 l 1.4,-1.6 c 0,0 13.7,-0.3 28.1,10.5 0,0 14.4,26.1 14.4,58.3 0,0 -8.5,14.5 -30.6,15.2 z"
     id="path81"
     style="fill:none;fill-opacity:1" /><use
     height="100%"
     width="100%"
     id="use103"
     xlink:href="#path81"
     y="0"
     x="0"
     style="fill:none;fill-opacity:1" /></g>
<path
   sodipodi:nodetypes="czzzzc"
   id="path1379"
   d="m 51.003901,29.428543 c 0,0 -0.02483,-9.769812 0,-11.145358 0.02483,-1.375546 1.547474,-2.485667 2.277605,-2.52561 0.730131,-0.03994 6.973302,0.0093 7.735649,0 0.762347,-0.0093 2.641609,1.132523 2.5972,2.52561 -0.04441,1.393087 0,11.145359 0,11.145359"
   style="fill:none;stroke:#ffffff;stroke-width:3.34345156;stroke-linecap:butt;stroke-linejoin:miter;stroke-opacity:1" /><path
   sodipodi:nodetypes="ccccsc"
   id="path1381"
   d="m 57.143136,15.759753 v -5.739786 c -0.02251,-9.84556745 10.989092,-9.94058783 10.954983,-0.1352057 0.09432,3.2919227 -0.106104,4.7826467 0,5.7397857 0.116108,10.615124 10.459926,10.439419 10.432376,0.191363 -0.009,-3.508188 -0.0272,-14.6908164 -0.12165,-15.73042415"
   style="fill:none;stroke:#ffffff;stroke-width:3.34345156;stroke-linecap:butt;stroke-linejoin:miter;stroke-opacity:1" /><text
   xml:space="preserve"
   style="font-style:italic;font-size:40px;line-height:1.25;font-family:'Roboto Mono Light for Powerline';-inkscape-font-specification:'Roboto Mono Light for Powerline Italic'"
   x="83.268715"
   y="127.92108"
   id="text851"><tspan
     sodipodi:role="line"
     id="tspan849"
     x="83.268715"
     y="127.92108" /></text><path
   id="path851"
   d="m 32.80573,117.89473 c -7.246956,-0.92788 -14.743655,-4.85904 -18.766767,-9.84103 l -1.297061,-1.60621 0.231426,-3.69248 c 0.803049,-12.812943 4.358349,-26.530263 9.753697,-37.63242 1.534772,-3.158142 2.450868,-3.970949 7.360979,-6.531028 4.968909,-2.590735 14.752193,-5.135266 15.755033,-4.097721 0.251875,0.260592 0.209449,0.427944 -0.136035,0.536578 -4.283787,1.347021 -8.07255,2.891933 -11.838487,4.827283 -4.293876,2.206662 -8.236025,4.782877 -7.880948,5.150241 0.08492,0.08786 1.733464,-0.563974 3.663417,-1.448533 18.078164,-8.285799 40.709559,-8.060787 57.304282,0.569746 2.080374,1.081953 3.074284,1.138015 1.798174,0.101425 -3.154998,-2.562805 -12.00203,-7.043175 -16.694415,-8.454494 -1.779105,-0.535098 -1.90657,-0.641072 -1.400642,-1.164504 1.151751,-1.191608 10.107202,0.986955 15.631584,3.802646 5.461793,2.78379 6.154913,3.370489 7.681863,6.502396 5.63827,11.564594 9.86365,28.39643 9.86365,39.291935 0,2.4555 -0.0716,2.68874 -1.26887,4.13594 -2.91135,3.51895 -8.605,7.0571 -13.61018,8.45759 -2.310848,0.6466 -8.546275,1.66008 -8.66829,1.40892 -0.02388,-0.0491 -1.135066,-1.37139 -2.469346,-2.93838 -1.334278,-1.56699 -2.363245,-2.89904 -2.286598,-2.9601 0.07666,-0.061 1.357225,-0.5621 2.845718,-1.11344 1.488493,-0.55134 3.879769,-1.80378 5.313947,-2.78323 2.527657,-1.72619 5.923359,-4.94543 5.585369,-5.29511 -0.0915,-0.0947 -1.99459,0.77284 -4.229059,1.92784 -9.576536,4.95016 -20.359066,7.19786 -30.309041,6.31812 -8.088897,-0.71517 -16.100427,-2.99265 -22.663003,-6.44252 -2.101602,-1.10479 -3.903175,-1.92379 -4.003495,-1.82 -0.35238,0.36458 2.988651,3.58237 5.508424,5.30524 1.400657,0.95768 3.742345,2.19243 5.203753,2.74388 l 2.657106,1.00263 -2.546778,3.07232 c -1.400729,1.68978 -2.785907,3.05244 -3.078174,3.02814 -0.292267,-0.0243 -1.647325,-0.18704 -3.011237,-0.36167 z M 47.345174,98.923386 c 1.583447,-0.74415 3.203074,-2.52964 3.935924,-4.338981 0.695358,-1.71678 0.593673,-5.491222 -0.195337,-7.250588 -2.278767,-5.081284 -8.559684,-6.510559 -12.485418,-2.84116 -5.810736,5.431315 -2.498968,15.140159 5.154698,15.111609 1.322767,-0.005 2.712726,-0.26854 3.590133,-0.68088 z m 28.386378,0.0851 c 2.722937,-1.33683 4.342826,-3.836731 4.633237,-7.150261 0.463489,-5.288328 -2.994001,-9.262124 -8.058721,-9.262124 -3.715132,0 -6.39756,1.952033 -7.642607,5.56161 -1.381668,4.005664 0.399764,8.721805 4.047711,10.715845 1.665849,0.91058 5.298282,0.9804 7.02038,0.13492 z"
   style="fill:#ffffff;stroke-width:3.34345156" /></svg>
