<svg width="319.2" height="319.2" viewBox="0 0 318.75000000000006 318.75000000000006" class="css-1j8o68f">
    <defs id="SvgjsDefs7083">
        <linearGradient id="SvgjsLinearGradient7092">
            <stop id="SvgjsStop7093" stop-color="#006838" offset="0"></stop>
            <stop id="SvgjsStop7094" stop-color="#96cf24" offset="1"></stop>
        </linearGradient>
    </defs>
    <g id="SvgjsG7084" featurekey="rootContainer" transform="matrix(1.6220714023258265,0,0,1.6220714023258265,0,0)"
        fill="url(#SvgjsLinearGradient7092)">
        <path xmlns="http://www.w3.org/2000/svg"
            d="M98.254 0C44.077 0 0 44.076 0 98.254s44.077 98.254 98.254 98.254c54.177 0 98.254-44.076 98.254-98.254S152.431 0 98.254 0zm0 195.508C44.628 195.508 1 151.88 1 98.254S44.628 1 98.254 1c53.626 0 97.254 43.628 97.254 97.254s-43.628 97.254-97.254 97.254z">
        </path>
        <path xmlns="http://www.w3.org/2000/svg"
            d="M98.254 5.453c-51.171 0-92.801 41.63-92.801 92.801s41.63 92.801 92.801 92.801 92.802-41.63 92.802-92.801S149.425 5.453 98.254 5.453z">
        </path>
    </g>
    <g id="SvgjsG7085" featurekey="nameLeftFeature-0"
        transform="matrix(2.9162391660783165,0,0,2.9162391660783165,53.50051077579211,121.5025650035301)"
        fill="#ffffff">
        <path
            d="M12.22 20 l-3.1 0 l-2.98 -4.66 l-0.04 0 l-1.98 0 l0 4.66 l-2.92 0 l0 -14 l4.9 0 c3.14 0 5.18 1.9 5.18 4.76 c0 1.9 -0.92 3.32 -2.48 4.04 z M4.12 8.68 l0 4.14 l1.8 0 c1.44 0 2.44 -0.56 2.44 -2.06 c0 -1.48 -1 -2.08 -2.44 -2.08 l-1.8 0 z">
        </path>
    </g>
    <g id="SvgjsG7086" featurekey="inlineSymbolFeature-0"
        transform="matrix(0.5473592329208364,0,0,0.5473592329208364,91.26320383539581,132.06996080158882)"
        fill="#ffffff">
        <path xmlns="http://www.w3.org/2000/svg"
            d="M6.5,45.96c-0.829,0-1.5,0.671-1.5,1.5v5.079c0,0.829,0.671,1.5,1.5,1.5S8,53.368,8,52.54V47.46  C8,46.632,7.329,45.96,6.5,45.96z">
        </path>
        <path xmlns="http://www.w3.org/2000/svg"
            d="M12.3,41.522c-0.829,0-1.5,0.671-1.5,1.5v13.955c0,0.829,0.671,1.5,1.5,1.5s1.5-0.671,1.5-1.5V43.022  C13.8,42.194,13.128,41.522,12.3,41.522z">
        </path>
        <path xmlns="http://www.w3.org/2000/svg"
            d="M18.1,44.622c-0.829,0-1.5,0.671-1.5,1.5v7.756c0,0.829,0.671,1.5,1.5,1.5s1.5-0.671,1.5-1.5v-7.756  C19.6,45.293,18.929,44.622,18.1,44.622z">
        </path>
        <path xmlns="http://www.w3.org/2000/svg"
            d="M23.9,34.843c-0.829,0-1.5,0.671-1.5,1.5v27.313c0,0.829,0.671,1.5,1.5,1.5s1.5-0.671,1.5-1.5V36.343  C25.4,35.515,24.729,34.843,23.9,34.843z">
        </path>
        <path xmlns="http://www.w3.org/2000/svg"
            d="M29.7,28.604c-0.829,0-1.5,0.671-1.5,1.5v39.791c0,0.829,0.671,1.5,1.5,1.5s1.5-0.671,1.5-1.5V30.104  C31.2,29.276,30.529,28.604,29.7,28.604z">
        </path>
        <path xmlns="http://www.w3.org/2000/svg"
            d="M35.5,7.18c-0.829,0-1.5,0.671-1.5,1.5v82.64c0,0.829,0.671,1.5,1.5,1.5s1.5-0.671,1.5-1.5V8.68  C37,7.852,36.329,7.18,35.5,7.18z">
        </path>
        <path xmlns="http://www.w3.org/2000/svg"
            d="M41.3,13.768c-0.829,0-1.5,0.671-1.5,1.5v69.465c0,0.829,0.671,1.5,1.5,1.5s1.5-0.671,1.5-1.5V15.268  C42.8,14.439,42.128,13.768,41.3,13.768z">
        </path>
        <path xmlns="http://www.w3.org/2000/svg"
            d="M47.1,20.849c-0.829,0-1.5,0.671-1.5,1.5v55.303c0,0.829,0.671,1.5,1.5,1.5s1.5-0.671,1.5-1.5V22.349  C48.6,21.52,47.929,20.849,47.1,20.849z">
        </path>
        <path xmlns="http://www.w3.org/2000/svg"
            d="M52.9,30.88c-0.829,0-1.5,0.671-1.5,1.5v35.24c0,0.829,0.671,1.5,1.5,1.5s1.5-0.671,1.5-1.5V32.38  C54.4,31.551,53.729,30.88,52.9,30.88z">
        </path>
        <path xmlns="http://www.w3.org/2000/svg"
            d="M58.7,40.744c-0.829,0-1.5,0.671-1.5,1.5v15.512c0,0.829,0.671,1.5,1.5,1.5s1.5-0.671,1.5-1.5V42.244  C60.2,41.416,59.529,40.744,58.7,40.744z">
        </path>
        <path xmlns="http://www.w3.org/2000/svg"
            d="M64.5,33.457c-0.829,0-1.5,0.671-1.5,1.5v30.087c0,0.829,0.671,1.5,1.5,1.5s1.5-0.671,1.5-1.5V34.957  C66,34.128,65.329,33.457,64.5,33.457z">
        </path>
        <path xmlns="http://www.w3.org/2000/svg"
            d="M70.3,39.529c-0.829,0-1.5,0.671-1.5,1.5v17.942c0,0.829,0.671,1.5,1.5,1.5s1.5-0.671,1.5-1.5V41.029  C71.8,40.2,71.128,39.529,70.3,39.529z">
        </path>
        <path xmlns="http://www.w3.org/2000/svg"
            d="M76.1,43.442c-0.829,0-1.5,0.671-1.5,1.5v10.116c0,0.829,0.671,1.5,1.5,1.5s1.5-0.671,1.5-1.5V44.942  C77.6,44.113,76.929,43.442,76.1,43.442z">
        </path>
        <path xmlns="http://www.w3.org/2000/svg"
            d="M81.9,41.656c-0.829,0-1.5,0.671-1.5,1.5v13.688c0,0.829,0.671,1.5,1.5,1.5s1.5-0.671,1.5-1.5V43.156  C83.4,42.328,82.729,41.656,81.9,41.656z">
        </path>
        <path xmlns="http://www.w3.org/2000/svg"
            d="M87.7,45.96c-0.829,0-1.5,0.671-1.5,1.5v5.079c0,0.829,0.671,1.5,1.5,1.5s1.5-0.671,1.5-1.5V47.46  C89.2,46.632,88.529,45.96,87.7,45.96z">
        </path>
        <path xmlns="http://www.w3.org/2000/svg"
            d="M93.5,46.982c-0.829,0-1.5,0.671-1.5,1.5v3.035c0,0.829,0.671,1.5,1.5,1.5s1.5-0.671,1.5-1.5v-3.035  C95,47.654,94.329,46.982,93.5,46.982z">
        </path>
    </g>
    <g id="SvgjsG7087" featurekey="nameRightFeature-0"
        transform="matrix(2.9162391660783165,0,0,2.9162391660783165,146.83350405545445,121.5025650035301)"
        fill="#ffffff">
        <path
            d="M12.38 6 l3.12 0 l-6.24 14 l-2.64 0 l-6.22 -14 l3.1 0 l4.44 10.42 z M20.02 17.32 l5.92 0 l0 2.68 l-6.32 0 l-2.52 0 l0 -14 l2.92 0 l5.74 0 l0 2.68 l-5.74 0 l0 2.96 l4.34 0 l0 2.64 l-4.34 0 l0 3.04 z M39.06 20 l-3.1 0 l-2.98 -4.66 l-0.04 0 l-1.98 0 l0 4.66 l-2.92 0 l0 -14 l4.9 0 c3.14 0 5.18 1.9 5.18 4.76 c0 1.9 -0.92 3.32 -2.48 4.04 z M30.96 8.68 l0 4.14 l1.8 0 c1.44 0 2.44 -0.56 2.44 -2.06 c0 -1.48 -1 -2.08 -2.44 -2.08 l-1.8 0 z">
        </path>
    </g>
</svg>