<?xml version="1.0" encoding="UTF-8" standalone="no"?>
<svg
   xmlns:dc="http://purl.org/dc/elements/1.1/"
   xmlns:cc="http://creativecommons.org/ns#"
   xmlns:rdf="http://www.w3.org/1999/02/22-rdf-syntax-ns#"
   xmlns:svg="http://www.w3.org/2000/svg"
   xmlns="http://www.w3.org/2000/svg"
   xmlns:xlink="http://www.w3.org/1999/xlink"
   xmlns:sodipodi="http://sodipodi.sourceforge.net/DTD/sodipodi-0.dtd"
   xmlns:inkscape="http://www.inkscape.org/namespaces/inkscape"
   version="1.1"
   id="Layer_1"
   x="0px"
   y="0px"
   viewBox="0 0 116.57737 144.06819"
   xml:space="preserve"
   sodipodi:docname="app.svg"
   inkscape:version="1.0 (4035a4fb49, 2020-05-01)"
   width="116.57738"
   height="144.06819"><metadata
   id="metadata88"><rdf:RDF><cc:Work
       rdf:about=""><dc:format>image/svg+xml</dc:format><dc:type
         rdf:resource="http://purl.org/dc/dcmitype/StillImage" /><dc:title></dc:title></cc:Work></rdf:RDF></metadata><defs
   id="defs86" /><sodipodi:namedview
   inkscape:document-rotation="0"
   pagecolor="#ffffff"
   bordercolor="#666666"
   borderopacity="1"
   objecttolerance="10"
   gridtolerance="10"
   guidetolerance="10"
   inkscape:pageopacity="0"
   inkscape:pageshadow="2"
   inkscape:window-width="1920"
   inkscape:window-height="1023"
   id="namedview84"
   showgrid="false"
   inkscape:snap-nodes="true"
   inkscape:object-paths="false"
   inkscape:snap-intersection-paths="false"
   inkscape:snap-smooth-nodes="true"
   inkscape:snap-grids="true"
   inkscape:zoom="4.8672517"
   inkscape:cx="34.800486"
   inkscape:cy="71.460302"
   inkscape:window-x="0"
   inkscape:window-y="0"
   inkscape:window-maximized="1"
   inkscape:current-layer="Layer_1"
   inkscape:snap-global="true" />
<style
   type="text/css"
   id="style77">
	.st0{fill:#7289DA;}
</style>

<path
   style="opacity:1;fill:none;fill-opacity:1;stroke:#ffffff;stroke-width:1.95913;stroke-linecap:butt;stroke-linejoin:miter;stroke-opacity:1"
   d="M 0.97956502,29.424456 H 115.58645 c 0,0 -0.31611,69.382311 0,88.940294 0.31611,19.55799 -5.99583,24.39778 -21.921725,24.62335 -15.925894,0.22558 -92.68515998,0 -92.68515998,0 z"
   id="path550"
   sodipodi:nodetypes="cczzcc" /><g
   style="fill:#ffffff;fill-opacity:1"
   id="g92"
   transform="matrix(0.16413391,0,0,0.16413391,3.9143048,32.11977)"><path
     style="fill:#ffffff;fill-opacity:1"
     id="path79"
     d="m 104.4,103.9 c -5.7,0 -10.2,5 -10.2,11.1 0,6.1 4.6,11.1 10.2,11.1 5.7,0 10.2,-5 10.2,-11.1 0.1,-6.1 -4.5,-11.1 -10.2,-11.1 z m 36.5,0 c -5.7,0 -10.2,5 -10.2,11.1 0,6.1 4.6,11.1 10.2,11.1 5.7,0 10.2,-5 10.2,-11.1 0,-6.1 -4.5,-11.1 -10.2,-11.1 z"
     class="st0" /><path
     style="fill:#ffffff;fill-opacity:1"
     id="path81"
     d="M 189.5,20 H 55.5 C 44.2,20 35,29.2 35,40.6 v 135.2 c 0,11.4 9.2,20.6 20.5,20.6 h 134 c 12.03636,0.0923 20.44397,-9.77136 20.69674,-20.6 L 210,40.6 C 209.98341,29.200012 200.8,20 189.5,20 Z m -38.6,130.6 c 0,0 -3.6,-4.3 -6.6,-8.1 13.1,-3.7 18.1,-11.9 18.1,-11.9 -4.1,2.7 -8,4.6 -11.5,5.9 -5,2.1 -9.8,3.5 -14.5,4.3 -9.6,1.8 -18.4,1.3 -25.9,-0.1 -5.7,-1.1 -10.6,-2.7 -14.7,-4.3 -2.3,-0.9 -4.8,-2 -7.3,-3.4 -0.3,-0.2 -0.6,-0.3 -0.9,-0.5 -0.2,-0.1 -0.3,-0.2 -0.4,-0.3 -1.8,-1 -2.8,-1.7 -2.8,-1.7 0,0 4.8,8 17.5,11.8 -3,3.8 -6.7,8.3 -6.7,8.3 -22.1,-0.7 -30.5,-15.2 -30.5,-15.2 0,-32.2 14.4,-58.3 14.4,-58.3 14.4,-10.8 28.1,-10.5 28.1,-10.5 l 1,1.2 c -18,5.2 -26.3,13.1 -26.3,13.1 0,0 2.2,-1.2 5.9,-2.9 10.7,-4.7 19.2,-6 22.7,-6.3 0.6,-0.1 1.1,-0.2 1.7,-0.2 6.1,-0.8 13,-1 20.2,-0.2 9.5,1.1 19.7,3.9 30.1,9.6 0,0 -7.9,-7.5 -24.9,-12.7 l 1.4,-1.6 c 0,0 13.7,-0.3 28.1,10.5 0,0 14.4,26.1 14.4,58.3 0,0 -8.5,14.5 -30.6,15.2 z"
     class="st0"
     sodipodi:nodetypes="sssssccsscccccccccccccccccccccccccccc" /><use
     style="fill:#ffffff;fill-opacity:1"
     x="0"
     y="0"
     xlink:href="#path81"
     id="use103"
     width="100%"
     height="100%" /></g>
<text
   xml:space="preserve"
   style="font-style:normal;font-weight:normal;font-size:14.6667px;line-height:0;font-family:sans-serif;letter-spacing:-0.66px;word-spacing:0px;fill:#ffffff;fill-opacity:1;stroke:none;stroke-width:27.0625;"
   x="44.028126"
   y="126.48485"
   id="text1377"><tspan
     sodipodi:role="line"
     id="tspan1375"
     x="44.028126"
     y="126.48485"
     style="font-style:normal;font-variant:normal;font-weight:normal;font-stretch:normal;font-size:14.6667px;line-height:0;font-family:'Roboto Mono Light for Powerline';-inkscape-font-specification:'Roboto Mono Light for Powerline';baseline-shift:baseline;fill:#ffffff;stroke-width:27.0625;fill-opacity:1;">disboard</tspan></text><path
   style="fill:none;stroke:#ffffff;stroke-width:1.88963;stroke-linecap:butt;stroke-linejoin:miter;stroke-opacity:1"
   d="m 51.003901,29.428543 c 0,0 -0.02483,-9.769812 0,-11.145358 0.02483,-1.375546 1.547474,-2.485667 2.277605,-2.52561 0.730131,-0.03994 6.973302,0.0093 7.735649,0 0.762347,-0.0093 2.641609,1.132523 2.5972,2.52561 -0.04441,1.393087 0,11.145359 0,11.145359"
   id="path1379"
   sodipodi:nodetypes="czzzzc" /><path
   style="fill:none;stroke:#ffffff;stroke-width:1.88963;stroke-linecap:butt;stroke-linejoin:miter;stroke-opacity:1"
   d="m 57.143136,15.759753 v -5.739786 c -0.02251,-9.84556733 10.989092,-9.94058771 10.954983,-0.1352056 0.09432,3.2919226 -0.106104,4.7826466 0,5.7397856 0.116108,10.615124 10.459926,10.439419 10.432376,0.191363 -0.009,-3.508188 -0.0272,-14.6908163 -0.12165,-15.73042403"
   id="path1381"
   sodipodi:nodetypes="ccccsc" /><path
   style="fill:none;stroke:#ffffff;stroke-width:1.88963;stroke-linecap:butt;stroke-linejoin:miter;stroke-opacity:1"
   d="m 44.987715,38.782563 c -0.04702,-1.855779 1.790773,-3.392552 3.136049,-3.395719 l 21.897269,-0.0063 c 1.938662,-0.04411 3.721592,1.433578 3.680152,3.279535 l 0.0222,22.402906 c 0.0297,2.002031 -1.72482,3.285604 -3.490672,3.315657 l -21.731647,-0.0068 c -1.589211,0.02985 -3.493725,-1.07217 -3.513394,-3.398346 z"
   id="path1391"
   sodipodi:nodetypes="ccccccccc" /><path
   sodipodi:nodetypes="ccccccccc"
   id="path1391-3"
   d="m 80.587045,38.782563 c -0.047,-1.855779 1.79078,-3.392552 3.13605,-3.395719 l 21.897285,-0.0063 c 1.93866,-0.04411 3.72159,1.433578 3.68015,3.279535 l 0.0222,22.402907 c 0.0297,2.002031 -1.72482,3.285604 -3.49067,3.315657 l -21.731655,-0.0068 c -1.58922,0.02985 -3.49373,-1.07217 -3.5134,-3.398346 z"
   style="fill:none;stroke:#ffffff;stroke-width:1.88963;stroke-linecap:butt;stroke-linejoin:miter;stroke-opacity:1" /><path
   sodipodi:nodetypes="ccccccccc"
   id="path1391-38"
   d="m 9.6692999,73.896837 c -0.04702,-1.855779 1.7907731,-3.392552 3.1360491,-3.395719 l 21.897269,-0.0063 c 1.93866,-0.04411 3.72159,1.433578 3.68015,3.279535 l 0.0222,22.402906 c 0.0297,2.002031 -1.72482,3.285604 -3.49067,3.315657 l -21.731647,-0.0068 C 11.59344,99.515966 9.6889259,98.413946 9.6692569,96.08777 Z"
   style="fill:#ffffff;stroke:#ffffff;stroke-width:1.88963;stroke-linecap:butt;stroke-linejoin:miter;stroke-opacity:1" /><path
   style="fill:none;stroke:#ffffff;stroke-width:1.88963;stroke-linecap:butt;stroke-linejoin:miter;stroke-opacity:1"
   d="m 44.987715,73.896836 c -0.04702,-1.855779 1.790773,-3.392552 3.136049,-3.395719 l 21.897269,-0.0063 c 1.938662,-0.04411 3.721592,1.433578 3.680152,3.279535 l 0.0222,22.402907 c 0.0297,2.002031 -1.72482,3.285604 -3.490672,3.315657 l -21.731647,-0.0068 c -1.589211,0.02985 -3.493725,-1.07217 -3.513394,-3.398346 z"
   id="path1391-38-6"
   sodipodi:nodetypes="ccccccccc" /><path
   style="fill:none;stroke:#ffffff;stroke-width:1.88963;stroke-linecap:butt;stroke-linejoin:miter;stroke-opacity:1"
   d="m 80.58705,73.896837 c -0.047,-1.855779 1.79077,-3.392552 3.13605,-3.395719 l 21.89728,-0.0063 c 1.93866,-0.04411 3.72159,1.433578 3.68015,3.279535 l 0.0222,22.402906 c 0.0297,2.002031 -1.72482,3.285604 -3.49067,3.315657 l -21.73166,-0.0068 c -1.58921,0.02985 -3.49373,-1.07217 -3.5134,-3.398346 z"
   id="path1391-38-0"
   sodipodi:nodetypes="ccccccccc" /><path
   style="fill:none;stroke:#ffffff;stroke-width:1.88963;stroke-linecap:butt;stroke-linejoin:miter;stroke-opacity:1"
   d="m 9.6693001,109.9596 c -0.04702,-1.85578 1.7907729,-3.39255 3.1360489,-3.39572 l 21.897269,-0.006 c 1.93866,-0.0441 3.72159,1.43358 3.68015,3.27953 l 0.0222,22.40291 c 0.0297,2.00203 -1.72482,3.28561 -3.49067,3.31566 l -21.731647,-0.007 c -1.589211,0.0298 -3.4937249,-1.07217 -3.5133939,-3.39835 z"
   id="path1391-38-4"
   sodipodi:nodetypes="ccccccccc" /><text
   id="text851"
   y="127.92108"
   x="83.268715"
   style="font-style:italic;font-size:40px;line-height:1.25;font-family:'Roboto Mono Light for Powerline';-inkscape-font-specification:'Roboto Mono Light for Powerline Italic'"
   xml:space="preserve"><tspan
     y="127.92108"
     x="83.268715"
     id="tspan849"
     sodipodi:role="line" /></text></svg>
